# xmcd CD database file
#
# Track frame offsets:
#	150
#	8099
#	25772
#	47428
#	66944
#	92210
#	113296
#	136451
#	154676
#	171896
#	191246
#	214109
#	233596
#	254159
#	285541
#
# Disc length: 4126 seconds
#
# Revision: 0
# Processed by: cddbd v1.5.2PL0 Copyright (c) Steve Scherf et al.
# Submitted via: CDex 1.51
#
DISCID=ca101c0f
DTITLE=Rossana Casale - Merry Christmas in Jazz
DYEAR=2009
DGENRE=Jazz
TTITLE0=I'll be home for Christmas
TTITLE1=I've got my love to keep me warm
TTITLE2=Christmas Dreaming
TTITLE3=Christmas Blues
TTITLE4=Have yourself a merry little Christmas
TTITLE5=Come for Christmas
TTITLE6=The Christmas song
TTITLE7=All I want for Christmas
TTITLE8=Silent Night
TTITLE9=The Polar Express
TTITLE10=A cradle in Bethlem
TTITLE11=Christmas time is here
TTITLE12=A child is born
TTITLE13=My favourite things
TTITLE14=Some other time
EXTD=YEAR: 2009
EXTT0=
EXTT1=
EXTT2=
EXTT3=
EXTT4=
EXTT5=
EXTT6=
EXTT7=
EXTT8=
EXTT9=
EXTT10=
EXTT11=
EXTT12=
EXTT13=
EXTT14=
PLAYORDER=
